HIERARCHY
ROOT Hips
{
    OFFSET 0.000000 0.000000 0.000000
    CHANNELS 6 Xposition Yposition Zposition Zrotation Yrotation Xrotation
    JOINT Chest
    {
        OFFSET 0.000000 1.634758 -0.000000
        CHANNELS 3 Zrotation Yrotation Xrotation
        JOINT Chest2
        {
            OFFSET 0.000000 2.197341 0.000000
            CHANNELS 3 Zrotation Yrotation Xrotation
            JOINT Neck
            {
                OFFSET 0.000000 0.961544 0.000000
                CHANNELS 3 Zrotation Yrotation Xrotation
                JOINT Head
                {
                    OFFSET 0.000000 0.632542 -0.032565
                    CHANNELS 3 Zrotation Yrotation Xrotation
                    End Site
                    {
                        OFFSET -0.000001 0.439502 2.922845
                    }
                }
            }
            JOINT LeftCollar
            {
                OFFSET 0.167536 0.778237 -0.168280
                CHANNELS 3 Zrotation Yrotation Xrotation
                JOINT LeftShoulder
                {
                    OFFSET 0.831514 -0.002900 0.006458
                    CHANNELS 3 Zrotation Yrotation Xrotation
                    JOINT LeftElbow
                    {
                        OFFSET 2.272872 -0.026639 0.059314
                        CHANNELS 3 Zrotation Yrotation Xrotation
                        JOINT LeftWrist
                        {
                            OFFSET 2.081982 -0.024402 0.054333
                            CHANNELS 3 Zrotation Yrotation Xrotation
                            JOINT LeftHandThumb1
                            {
                                OFFSET 0.218903 -0.128645 0.283837
                                CHANNELS 3 Zrotation Yrotation Xrotation
                                JOINT LeftHandThumb2
                                {
                                    OFFSET 0.137157 -0.025101 0.077902
                                    CHANNELS 3 Zrotation Yrotation Xrotation
                                    JOINT LeftHandThumb3
                                    {
                                        OFFSET 0.163467 -0.081511 -0.013182
                                        CHANNELS 3 Zrotation Yrotation Xrotation
                                        End Site
                                        {
                                            OFFSET 0.255592 -0.071779 -0.036833
                                        }
                                    }
                                }
                            }
                            JOINT LeftHandFore1
                            {
                                OFFSET 0.767340 -0.016076 0.196678
                                CHANNELS 3 Zrotation Yrotation Xrotation
                                JOINT LeftHandFore2
                                {
                                    OFFSET 0.157397 -0.148744 0.009828
                                    CHANNELS 3 Zrotation Yrotation Xrotation
                                    JOINT LeftHandFore3
                                    {
                                        OFFSET -0.124998 -0.032773 -0.008021
                                        CHANNELS 3 Zrotation Yrotation Xrotation
                                        End Site
                                        {
                                            OFFSET -0.151567 0.119899 -0.004298
                                        }
                                    }
                                }
                            }
                            JOINT LeftHandMiddle1
                            {
                                OFFSET 0.709887 -0.008320 0.018526
                                CHANNELS 3 Zrotation Yrotation Xrotation
                                JOINT LeftHandMiddle2
                                {
                                    OFFSET 0.075372 -0.233007 0.009507
                                    CHANNELS 3 Zrotation Yrotation Xrotation
                                    JOINT LeftHandMiddle3
                                    {
                                        OFFSET -0.143120 -0.029991 0.000522
                                        CHANNELS 3 Zrotation Yrotation Xrotation
                                        End Site
                                        {
                                            OFFSET -0.136463 0.192333 -0.004016
                                        }
                                    }
                                }
                            }
                            JOINT LeftHandRing1
                            {
                                OFFSET 0.743817 -0.005823 -0.153668
                                CHANNELS 3 Zrotation Yrotation Xrotation
                                JOINT LeftHandRing2
                                {
                                    OFFSET 0.001667 -0.352614 0.019841
                                    CHANNELS 3 Zrotation Yrotation Xrotation
                                    JOINT LeftHandRing3
                                    {
                                        OFFSET -0.131382 -0.035009 0.010889
                                        CHANNELS 3 Zrotation Yrotation Xrotation
                                        End Site
                                        {
                                            OFFSET -0.058500 0.104739 -0.005215
                                        }
                                    }
                                }
                            }
                            JOINT LeftHandLittle1
                            {
                                OFFSET 0.689408 -0.053302 -0.308304
                                CHANNELS 3 Zrotation Yrotation Xrotation
                                JOINT LeftHandLittle2
                                {
                                    OFFSET -0.024854 -0.193474 0.002058
                                    CHANNELS 3 Zrotation Yrotation Xrotation
                                    JOINT LeftHandLittle3
                                    {
                                        OFFSET -0.119560 -0.007710 -0.011929
                                        CHANNELS 3 Zrotation Yrotation Xrotation
                                        End Site
                                        {
                                            OFFSET -0.120473 0.145456 -0.024846
                                        }
                                    }
                                }
                            }
                        }
                    }
                }
            }
            JOINT RightCollar
            {
                OFFSET -0.167536 0.778237 -0.168280
                CHANNELS 3 Zrotation Yrotation Xrotation
                JOINT RightShoulder
                {
                    OFFSET -0.831514 -0.002900 0.006457
                    CHANNELS 3 Zrotation Yrotation Xrotation
                    JOINT RightElbow
                    {
                        OFFSET -2.272872 -0.026639 0.059313
                        CHANNELS 3 Zrotation Yrotation Xrotation
                        JOINT RightWrist
                        {
                            OFFSET -2.081982 -0.024402 0.054331
                            CHANNELS 3 Zrotation Yrotation Xrotation
                            JOINT RightHandThumb1
                            {
                                OFFSET -0.218911 -0.128571 0.283837
                                CHANNELS 3 Zrotation Yrotation Xrotation
                                JOINT RightHandThumb2
                                {
                                    OFFSET -0.137157 -0.025101 0.077902
                                    CHANNELS 3 Zrotation Yrotation Xrotation
                                    JOINT RightHandThumb3
                                    {
                                        OFFSET -0.151269 -0.103226 0.001295
                                        CHANNELS 3 Zrotation Yrotation Xrotation
                                        End Site
                                        {
                                            OFFSET -0.194121 -0.181245 0.036103
                                        }
                                    }
                                }
                            }
                            JOINT RightHandFore1
                            {
                                OFFSET -0.767344 -0.015991 0.196679
                                CHANNELS 3 Zrotation Yrotation Xrotation
                                JOINT RightHandFore2
                                {
                                    OFFSET -0.157433 -0.148711 0.009838
                                    CHANNELS 3 Zrotation Yrotation Xrotation
                                    JOINT RightHandFore3
                                    {
                                        OFFSET 0.122706 -0.031613 -0.026567
                                        CHANNELS 3 Zrotation Yrotation Xrotation
                                        End Site
                                        {
                                            OFFSET 0.149969 0.120724 -0.017373
                                        }
                                    }
                                }
                            }
                            JOINT RightHandMiddle1
                            {
                                OFFSET -0.709887 -0.008302 0.018525
                                CHANNELS 3 Zrotation Yrotation Xrotation
                                JOINT RightHandMiddle2
                                {
                                    OFFSET -0.075348 -0.233011 0.009507
                                    CHANNELS 3 Zrotation Yrotation Xrotation
                                    JOINT RightHandMiddle3
                                    {
                                        OFFSET 0.142681 -0.030282 -0.010470
                                        CHANNELS 3 Zrotation Yrotation Xrotation
                                        End Site
                                        {
                                            OFFSET 0.135910 0.191954 -0.017681
                                        }
                                    }
                                }
                            }
                            JOINT RightHandRing1
                            {
                                OFFSET -0.743819 -0.005785 -0.153669
                                CHANNELS 3 Zrotation Yrotation Xrotation
                                JOINT RightHandRing2
                                {
                                    OFFSET -0.001692 -0.352614 0.019841
                                    CHANNELS 3 Zrotation Yrotation Xrotation
                                    JOINT RightHandRing3
                                    {
                                        OFFSET 0.131552 -0.035820 -0.003989
                                        CHANNELS 3 Zrotation Yrotation Xrotation
                                        End Site
                                        {
                                            OFFSET 0.058480 0.104749 -0.005286
                                        }
                                    }
                                }
                            }
                            JOINT RightHandLittle1
                            {
                                OFFSET -0.689403 -0.053298 -0.308303
                                CHANNELS 3 Zrotation Yrotation Xrotation
                                JOINT RightHandLittle2
                                {
                                    OFFSET 0.024848 -0.193478 0.002057
                                    CHANNELS 3 Zrotation Yrotation Xrotation
                                    JOINT RightHandLittle3
                                    {
                                        OFFSET 0.119912 -0.007457 0.007817
                                        CHANNELS 3 Zrotation Yrotation Xrotation
                                        End Site
                                        {
                                            OFFSET 0.121194 0.146016 0.016731
                                        }
                                    }
                                }
                            }
                        }
                    }
                }
            }
        }
    }
    JOINT LeftHip
    {
        OFFSET 0.685143 0.673822 -0.044491
        CHANNELS 3 Zrotation Yrotation Xrotation
        JOINT LeftKnee
        {
            OFFSET 0.085364 -3.750208 0.017676
            CHANNELS 3 Zrotation Yrotation Xrotation
            JOINT LeftAnkle
            {
                OFFSET 0.094583 -4.155206 0.019585
                CHANNELS 3 Zrotation Yrotation Xrotation
                JOINT LeftToe
                {
                    OFFSET -0.000000 -0.395925 0.621478
                    CHANNELS 3 Zrotation Yrotation Xrotation
                    End Site
                    {
                        OFFSET -0.000000 -0.077878 0.321152
                    }
                }
            }
        }
    }
    JOINT RightHip
    {
        OFFSET -0.685143 0.673822 -0.044492
        CHANNELS 3 Zrotation Yrotation Xrotation
        JOINT RightKnee
        {
            OFFSET -0.085364 -3.750208 0.017677
            CHANNELS 3 Zrotation Yrotation Xrotation
            JOINT RightAnkle
            {
                OFFSET -0.094583 -4.155206 0.019585
                CHANNELS 3 Zrotation Yrotation Xrotation
                JOINT RightToe
                {
                    OFFSET -0.000000 -0.395925 0.621478
                    CHANNELS 3 Zrotation Yrotation Xrotation
                    End Site
                    {
                        OFFSET -0.000000 -0.077878 0.321152
                    }
                }
            }
        }
    }
}
MOTION
Frames: 4
Frame Time: 0.033333
-0.028606 8.564904 -0.989634 170.726425 42.023724 171.470062 -6.365607 -1.465895 4.419307 -0.014496 0.227536 -3.645284 3.886989 -5.929349 12.876410 0.600794 -11.511905 26.649029 -11.769690 3.515778 0.059674 -44.645691 12.072291 -1.511826 0.000002 -0.000000 -0.000002 35.170895 -5.082391 6.127011 -0.000003 0.000003 0.000003 0.000002 -0.000003 0.000000 0.000000 0.000003 0.000000 0.000003 -0.000003 0.000000 -0.000005 0.000003 0.000002 0.000003 -0.000002 0.000000 0.000000 -0.000003 -0.000002 0.000001 -0.000002 -0.000002 0.000003 0.000005 0.000002 -0.000001 -0.000007 0.000002 -0.000001 0.000003 -0.000002 0.000002 -0.000000 0.000000 0.000002 -0.000003 -0.000003 0.000000 0.000002 0.000000 -0.000004 0.000002 -0.000003 12.589926 -3.920852 -0.036892 48.573719 -11.923180 -1.883434 0.000002 -0.000002 0.000000 -35.265198 4.172513 6.096176 0.000000 -0.000005 -0.000006 -0.000006 -0.000000 0.000003 0.000003 0.000003 -0.000004 -0.000003 -0.000002 0.000001 0.000004 -0.000000 -0.000003 0.000001 0.000003 -0.000003 0.000001 -0.000003 -0.000001 0.000000 -0.000007 0.000001 -0.000003 0.000005 0.000000 0.000001 -0.000003 -0.000001 0.000001 -0.000000 -0.000002 0.000003 -0.000000 0.000001 0.000003 -0.000003 -0.000001 0.000000 -0.000002 0.000000 0.000004 -0.000003 -0.000003 -8.184782 -0.648598 -9.776389 0.009783 0.159419 7.021104 11.209278 13.215367 5.033982 0.000001 0.000002 -0.000000 -7.271175 0.843105 16.606071 -0.007068 -0.135617 5.968704 -4.531734 -8.443620 -18.260384 -0.000001 -0.000003 0.000004
-0.046465 8.567017 -0.978478 170.803345 37.308323 171.618423 -6.647134 -2.129018 4.764991 -0.340306 0.353664 -3.336452 3.083932 -6.283126 14.814200 0.649606 -12.419180 30.725267 -11.698571 3.097480 0.087840 -43.927094 11.108551 -1.273037 -0.000003 0.000001 -0.000003 35.171394 -5.076888 6.119956 0.000003 0.000012 0.000002 0.000005 0.000002 -0.000007 0.000002 -0.000000 -0.000002 0.000014 0.000007 0.000000 -0.000005 0.000002 0.000002 -0.000001 -0.000002 0.000002 0.000003 0.000007 0.000000 -0.000003 0.000002 -0.000002 0.000003 0.000002 0.000003 -0.000005 0.000002 0.000003 0.000002 0.000002 0.000000 0.000003 0.000003 -0.000002 -0.000009 0.000003 0.000002 -0.000001 0.000002 0.000003 -0.000002 -0.000003 0.000000 12.635839 -3.787316 -0.069767 48.034637 -10.919453 -1.619188 -0.000002 0.000003 0.000000 -35.962757 3.904688 5.768419 -0.000011 -0.000005 -0.000009 -0.000005 -0.000000 0.000001 0.000008 -0.000002 -0.000004 0.000012 -0.000010 0.000009 0.000000 -0.000002 0.000000 0.000004 0.000003 0.000001 -0.000001 -0.000020 0.000008 -0.000002 0.000002 0.000000 -0.000002 0.000003 0.000001 -0.000001 -0.000024 0.000009 -0.000001 0.000002 0.000000 0.000000 -0.000003 0.000000 0.000010 -0.000014 0.000010 0.000001 -0.000000 -0.000003 0.000001 -0.000003 0.000003 -9.309102 -0.567284 -6.105933 -0.000000 -0.000000 -0.000000 10.388065 9.152306 8.053161 -0.000001 -0.000000 0.000001 -6.203350 0.799684 18.309511 -0.003728 -0.098568 4.334462 -6.934823 -12.654554 -17.400299 -0.000001 -0.000003 0.000003
-0.077914 8.569806 -0.930167 171.004089 30.070280 172.023407 -6.914637 -3.131329 5.227731 -0.729542 0.541722 -2.923336 1.241111 -7.137708 16.742304 0.748123 -14.230818 34.501862 -11.576404 2.830965 0.128107 -42.785797 10.793441 -1.123669 -0.000003 0.000000 -0.000002 35.172771 -5.061354 6.100035 0.000000 0.000009 0.000002 0.000000 0.000002 0.000000 0.000000 -0.000003 -0.000003 0.000001 0.000009 -0.000007 -0.000005 -0.000002 -0.000002 0.000002 0.000002 0.000002 -0.000015 0.000002 -0.000002 0.000000 -0.000000 -0.000002 0.000000 -0.000000 0.000003 -0.000035 -0.000000 0.000003 0.000002 -0.000007 0.000002 -0.000003 -0.000000 0.000003 -0.000014 -0.000000 0.000000 -0.000003 -0.000002 0.000002 -0.000001 -0.000002 0.000000 12.799911 -3.555023 -0.117840 48.181793 -9.443727 -1.346065 0.000000 -0.000002 0.000000 -37.859390 3.204072 4.932205 -0.000019 0.000003 -0.000005 -0.000000 -0.000003 0.000000 0.000001 -0.000000 -0.000000 0.000002 0.000003 0.000000 0.000032 -0.000003 0.000004 0.000002 0.000002 0.000000 0.000000 0.000003 -0.000000 -0.000003 0.000005 -0.000001 0.000014 0.000002 0.000002 0.000012 0.000007 0.000001 0.000011 0.000002 -0.000003 0.000004 0.000002 0.000003 0.000022 0.000009 -0.000004 0.000003 -0.000000 0.000001 0.000008 -0.000002 0.000003 -10.848148 -0.575455 -6.290554 0.000000 -0.000000 0.000000 6.943285 4.738397 8.298527 -0.000000 -0.000003 0.000001 -4.249354 0.777009 19.073347 -0.003792 -0.099400 4.371064 -10.848725 -17.350058 -15.964754 -0.000000 -0.000000 -0.000003
-0.104429 8.570530 -0.843862 171.283615 25.255844 172.624817 -6.817563 -3.298843 5.352971 -0.819386 0.575882 -2.834615 -0.985892 -7.132813 17.990488 0.781022 -14.829524 37.595974 -11.479347 3.170717 0.135985 -42.067680 11.935969 -1.244291 0.000004 0.000002 0.000000 35.174927 -5.037211 6.069082 -0.000009 0.000010 0.000009 -0.000002 0.000002 -0.000005 0.000000 -0.000002 0.000003 0.000005 0.000002 -0.000005 -0.000006 -0.000000 0.000000 0.000000 0.000002 0.000000 0.000003 -0.000000 -0.000007 -0.000002 0.000002 0.000000 0.000003 -0.000002 -0.000002 -0.000005 -0.000005 -0.000002 -0.000001 0.000002 -0.000002 -0.000003 -0.000000 0.000002 -0.000006 -0.000000 -0.000005 0.000000 0.000003 0.000000 -0.000004 0.000002 0.000000 13.060976 -3.017797 -0.130831 49.838066 -7.642429 -1.116678 -0.000001 -0.000000 -0.000003 -40.663006 2.236885 3.822300 -0.000021 0.000009 -0.000005 -0.000001 -0.000000 0.000001 0.000006 -0.000002 -0.000002 0.000020 0.000010 0.000011 0.000027 -0.000002 0.000006 0.000012 -0.000003 0.000001 -0.000000 0.000003 0.000005 0.000003 -0.000000 0.000002 0.000020 0.000003 0.000002 0.000011 -0.000000 0.000004 0.000005 0.000002 0.000002 0.000016 -0.000002 0.000002 0.000008 0.000007 0.000002 0.000003 -0.000002 0.000004 0.000009 0.000003 0.000004 -11.622921 -0.595994 -6.923788 -0.000000 -0.000000 0.000000 3.437446 3.203421 9.477309 -0.000002 -0.000009 -0.000003 -2.631994 0.832913 16.591320 -0.014710 -0.195356 8.614818 -8.966940 -15.383210 -20.566845 0.000001 -0.000000 -0.000003
